<svg width="50" height="61" viewBox="0 0 50 61" fill="none" xmlns="http://www.w3.org/2000/svg">
<path fill-rule="evenodd" clip-rule="evenodd" d="M7.67482 8.17503C12.2697 3.58015 18.5017 0.998779 24.9998 0.998779C31.498 0.998779 37.7299 3.58015 42.3248 8.17503C46.9197 12.7699 49.5011 19.0019 49.5011 25.5C49.5011 31.9982 46.9197 38.2302 42.3248 42.825L24.9998 60.15L7.67482 42.825C5.39952 40.55 3.59463 37.849 2.36324 34.8763C1.13184 31.9037 0.498047 28.7176 0.498047 25.5C0.498047 22.2824 1.13184 19.0963 2.36324 16.1237C3.59463 13.1511 5.39952 10.4501 7.67482 8.17503V8.17503ZM24.9998 32.5C26.8563 32.5 28.6368 31.7625 29.9496 30.4498C31.2623 29.137 31.9998 27.3565 31.9998 25.5C31.9998 23.6435 31.2623 21.863 29.9496 20.5503C28.6368 19.2375 26.8563 18.5 24.9998 18.5C23.1433 18.5 21.3628 19.2375 20.0501 20.5503C18.7373 21.863 17.9998 23.6435 17.9998 25.5C17.9998 27.3565 18.7373 29.137 20.0501 30.4498C21.3628 31.7625 23.1433 32.5 24.9998 32.5Z" fill="#DB2777"/>
</svg>
